<?xml version="1.0" standalone="no"?><!DOCTYPE svg PUBLIC "-//W3C//DTD SVG 1.1//EN" "http://www.w3.org/Graphics/SVG/1.1/DTD/svg11.dtd"><svg t="1742474765029" class="icon" viewBox="0 0 1024 1024" version="1.1" xmlns="http://www.w3.org/2000/svg" p-id="3832" xmlns:xlink="http://www.w3.org/1999/xlink" width="200" height="200"><path d="M64 832v-682.666667a42.666667 42.666667 0 0 1 58.496-39.594666l106.666667 42.666666A42.666667 42.666667 0 0 1 256 192v597.333333a42.666667 42.666667 0 0 1-26.837333 39.594667l-106.666667 42.666667A42.666667 42.666667 0 0 1 64 832zM170.666667 760.448l-21.333334 8.533333V212.352l21.333334 8.533333v539.562667zM298.666667 832v-341.333333a42.666667 42.666667 0 0 1 58.496-39.594667l106.666666 42.666667a42.666667 42.666667 0 0 1 26.837334 39.594666v256a42.666667 42.666667 0 0 1-26.837334 39.594667l-106.666666 42.666667A42.666667 42.666667 0 0 1 298.666667 832z m106.666666-71.552l-21.333333 8.533333v-215.296l21.333333 8.533334v198.229333zM533.333333 704v-256a42.666667 42.666667 0 0 1 26.837334-39.594667l106.666666-42.666666A42.666667 42.666667 0 0 1 725.333333 405.333333v341.333334a42.666667 42.666667 0 0 1-58.496 39.594666l-106.666666-42.666666a42.666667 42.666667 0 0 1-26.837334-39.594667z m106.666667-20.352l-21.333333-8.533333v-198.229334l21.333333-8.533333v215.296zM768 832v-640a42.666667 42.666667 0 0 1 58.496-39.594667l106.666667 42.666667a42.666667 42.666667 0 0 1 26.837333 39.594667v554.666666a42.666667 42.666667 0 0 1-26.837333 39.594667l-106.666667 42.666667A42.666667 42.666667 0 0 1 768 832z m106.666667-71.552l-21.333334 8.533333V255.018667l21.333334 8.533333v496.896z" p-id="3833" fill="#2c2c2c"></path></svg>