<?xml version="1.0" standalone="no"?><!DOCTYPE svg PUBLIC "-//W3C//DTD SVG 1.1//EN" "http://www.w3.org/Graphics/SVG/1.1/DTD/svg11.dtd"><svg t="1742475003671" class="icon" viewBox="0 0 1120 1024" version="1.1" xmlns="http://www.w3.org/2000/svg" p-id="8368" xmlns:xlink="http://www.w3.org/1999/xlink" width="218.75" height="200"><path d="M1086.384489 655.781719c-63.345878-54.396737-110.297531-57.204311-108.392392-71.919004 2.506762-18.700445 82.322067-44.946244 142.634762-29.554725a513.886226 513.886226 0 0 0-9.701169-63.596554c-4.562307-19.753285-32.13669-139.250633-99.067237-205.003003a668.327837 668.327837 0 0 1-81.419633-93.301684c-11.656444-16.143548-11.355632-17.246523-22.560858-33.339936 0 0-86.60863-124.285264-184.121675-155.745128a63.496283 63.496283 0 0 0-24.816944-3.15852c-15.040572 1.328584-25.894852 8.472856-35.320278 14.714694-29.278981 19.602879-43.993674 29.153643-49.784295 32.287095-24.917215 13.461312-34.969331 1.980342-86.583562 5.289268-64.473921 4.11109-73.197453 23.563564-113.756863 14.514152-7.294678-1.629395-1.504057-1.027772-56.878432-23.538495-28.100803-11.455903-47.904223-18.976189-71.693395-26.295935-44.04381-13.611718-57.655528-13.135433-68.58501-7.069069-11.355632 6.31704-16.519562 16.845441-20.605585 25.493771-35.921901 76.130364-54.898089 116.338828-62.744254 182.467211-0.576555 4.812983-0.200541 17.823078-5.890891 33.339936a99.618725 99.618725 0 0 1-21.683492 34.34264c-25.694311 27.574383-76.1805 131.955956-94.153984 202.070091-33.440206 130.351628 17.798011 249.272421 22.560859 259.92616 0.175473 0.42615 0.401082 0.852299 0.601623 1.278449a78.085639 78.085639 0 0 1 2.73237-13.110366c24.064916-78.135774 171.261985-87.385726 182.467212-64.749664 6.567717 13.310907-36.999808 31.108917-79.464358 103.002853-23.037143 39.005218-28.702426 65.175814-37.175281 76.28077a433.293825 433.293825 0 0 0 70.715758 59.5356 88.263093 88.263093 0 0 1-3.735076-24.315593c-0.476285-88.889783 149.202479-146.394905 168.178668-126.541349 11.130024 11.656444-28.251209 44.294486-48.906928 132.682916-7.79603 33.465274-8.899005 57.655528-10.578536 74.099887 6.016229 2.506762 11.556173 4.812983 16.469427 6.818393 231.349072 94.906012 555.272868 55.549848 719.240175-96.535407a454.450897 454.450897 0 0 0-31.309459-60.989522c-48.004494-77.032799-95.808447-95.256959-89.015121-109.871381 11.430835-24.641471 168.278938-18.775648 198.961706 62.919728 0.701893-1.604328 1.453922-3.183588 2.155815-4.812983a346.10864 346.10864 0 0 0 21.934169-77.709625 363.104487 363.104487 0 0 0-30.707836-29.905671z m-248.54546 136.142248c-5.013524 31.785743-8.974208 55.875727-25.769514 62.89466-13.837327 5.765553-29.153643-3.083317-55.474645-18.299363-22.560859-13.085298-35.570954-20.580517-36.022171-31.660405a11.104956 11.104956 0 0 1 0-2.231018 529.528421 529.528421 0 0 1-174.219964 21.482951c-4.512172 8.974208-15.441654 19.251933-28.401614 31.434796-23.488361 22.009371-41.286371 38.704406-58.858774 33.991694-14.489085-3.885481-21.18214-20.254638-32.713245-48.380508-7.520286-18.249228-12.53381-30.607565-11.806849-39.481503l-2.882777-0.877366a18.073755 18.073755 0 0 1-12.759419-17.296659v-0.902434a18.073755 18.073755 0 0 1 24.089984-17.07105 449.863522 449.863522 0 0 0 390.904478-42.13867 18.073755 18.073755 0 0 1 24.115051 4.587374l0.225609 0.300812a18.12389 18.12389 0 0 1 1.980342 18.12389c3.308926 9.776372 0.752029 25.91992-2.406492 45.522799z m-240.122739-131.178859c-280.331203 23.989713-335.179157 5.69035-371.426937-34.016762-44.921176-49.20774-45.673205-114.183013-45.673205-130.777777-1.704598-158.577769 172.966583-333.399356 371.426937-351.824058 203.047728-18.850851 403.31295 128.346218 434.221327 286.422635 4.261496 21.783762 15.266181 78.110706-13.887462 129.048112-26.170596 45.547867-78.010436 75.729282-374.66066 101.14785z" p-id="8369"></path><path d="M502.233722 263.147575c-29.50459 20.705855-25.268162 71.818733-19.602879 139.927459 5.565012 67.181224 9.575831 115.536664 41.837859 132.106361 37.375823 19.17673 88.914851-16.54463 138.649011-51.012608 45.347326-31.434796 82.296999-57.053905 81.093753-91.546951s-39.280962-56.953634-86.332886-84.904032c-51.889975-31.058782-118.344238-70.715758-155.644858-44.570229z" p-id="8370"></path></svg>